<svg width="750" height="742" viewBox="0 0 750 742" fill="none" xmlns="http://www.w3.org/2000/svg">
<path d="M100 188C114.113 188.092 128.086 185.195 141 179.5L229 269C241.742 251.984 257.3 237.272 275 225.5L188 138C195.797 124.643 199.936 109.466 200 94C199.087 68.3579 188.051 44.1221 169.309 26.5983C150.567 9.07444 125.646 -0.30977 100 0.500038C74.3544 -0.30977 49.4327 9.07444 30.6906 26.5983C11.9485 44.1221 0.913034 68.3579 0 94C0.387926 106.74 3.28294 119.279 8.51955 130.9C13.7562 142.52 21.2317 152.995 30.5188 161.725C39.8059 170.455 50.7225 177.269 62.6445 181.777C74.5666 186.286 87.2603 188.4 100 188ZM100 63C109.05 62.2952 118.021 65.1345 125.017 70.9184C132.014 76.7024 136.49 84.9785 137.5 94C136.611 103.112 132.187 111.513 125.177 117.401C118.167 123.29 109.129 126.197 100 125.5C90.8714 126.197 81.8331 123.29 74.8229 117.401C67.8127 111.513 63.3889 103.112 62.5 94C63.5101 84.9785 67.9858 76.7024 74.9825 70.9184C81.9792 65.1345 90.9495 62.2952 100 63ZM650 550.5C635.887 550.408 621.914 553.305 609 559L521 469C507.98 485.522 492.258 499.723 474.5 511L561.5 598C553.856 611.397 549.888 626.576 550 642C550 668.522 560.536 693.957 579.289 712.711C598.043 731.464 623.478 742 650 742C676.522 742 701.957 731.464 720.711 712.711C739.464 693.957 750 668.522 750 642C748.577 616.712 737.32 592.983 718.634 575.885C699.947 558.788 675.315 549.677 650 550.5ZM650 675.5C640.871 676.197 631.833 673.29 624.823 667.401C617.813 661.513 613.389 653.112 612.5 644C613.957 635.105 618.529 627.019 625.398 621.183C632.267 615.348 640.987 612.144 650 612.144C659.013 612.144 667.733 615.348 674.602 621.183C681.471 627.019 686.043 635.105 687.5 644C686.611 653.112 682.187 661.513 675.177 667.401C668.167 673.29 659.129 676.197 650 675.5Z" fill="#8365FF"/>
<path d="M525 369C525.036 340.325 515.734 312.418 498.5 289.5L565 223.5C578.004 228.909 591.918 231.793 606 232C618.74 232.4 631.433 230.285 643.355 225.777C655.277 221.269 666.194 214.455 675.481 205.725C684.768 196.995 692.244 186.52 697.48 174.9C702.717 163.279 705.612 150.74 706 138C706 111.478 695.464 86.043 676.711 67.2893C657.957 48.5357 632.522 38 606 38C579.478 38 554.043 48.5357 535.289 67.2893C516.536 86.043 506 111.478 506 138C506.064 153.466 510.203 168.643 518 182L451.5 248.5C428.124 235.416 401.789 228.531 375 228.5C341.924 228.044 309.626 238.534 283.13 258.338C256.634 278.142 237.428 306.149 228.5 338H194C186.449 319.327 173.434 303.37 156.662 292.219C139.889 281.067 120.14 275.239 100 275.5C74.3544 274.69 49.4327 284.074 30.6906 301.598C11.9485 319.122 0.913034 343.358 0 369C0.387926 381.74 3.28294 394.279 8.51955 405.9C13.7562 417.52 21.2317 427.995 30.5188 436.725C39.8059 445.455 50.7225 452.269 62.6445 456.777C74.5666 461.285 87.2603 463.4 100 463C120.14 463.261 139.889 457.433 156.662 446.281C173.434 435.129 186.449 419.173 194 400.5H228.5C237.428 432.351 256.634 460.358 283.13 480.162C309.626 499.966 341.924 510.456 375 510C394.11 510.6 413.15 507.428 431.033 500.666C448.916 493.903 465.291 483.682 479.222 470.587C493.152 457.492 504.366 441.78 512.221 424.349C520.076 406.918 524.418 388.11 525 369ZM606 107C615.078 106.164 624.118 108.955 631.145 114.764C638.172 120.573 642.614 128.926 643.5 138C642.043 146.895 637.471 154.982 630.602 160.817C623.733 166.652 615.013 169.856 606 169.856C596.987 169.856 588.267 166.652 581.398 160.817C574.529 154.982 569.957 146.895 568.5 138C569.51 128.978 573.986 120.702 580.983 114.918C587.979 109.134 596.95 106.295 606 107ZM100 400.5C90.8714 401.197 81.8331 398.29 74.8229 392.401C67.8127 386.513 63.3889 378.112 62.5 369C63.5101 359.978 67.9858 351.702 74.9825 345.918C81.9792 340.134 90.9495 337.295 100 338C109.05 337.295 118.021 340.134 125.017 345.918C132.014 351.702 136.49 359.978 137.5 369C136.611 378.112 132.187 386.513 125.177 392.401C118.167 398.29 109.129 401.197 100 400.5ZM375 447.5C353.012 448.592 331.483 440.957 315.096 426.256C298.709 411.555 288.791 390.977 287.5 369C288.789 347.064 298.724 326.535 315.127 311.913C331.53 297.292 353.061 289.771 375 291C396.906 289.903 418.364 297.47 434.737 312.066C451.11 326.661 461.083 347.112 462.5 369C461.082 390.93 451.127 411.431 434.769 426.106C418.412 440.781 396.955 448.461 375 447.5Z" fill="#8365FF"/>
</svg>
