<svg width="217" height="217" viewBox="0 0 217 217" fill="none" xmlns="http://www.w3.org/2000/svg">
<rect width="217" height="217" rx="40" fill="#2D1229"/>
<path d="M45.5594 48.28C51.4794 48.28 56.2794 53.08 56.2794 59V152.28C56.2794 158.2 51.4794 163 45.5594 163C39.6394 163 34.8394 158.2 34.8394 152.28V59C34.8394 53.08 39.6394 48.28 45.5594 48.28ZM134.682 48.28C165.242 48.6 188.122 73.24 188.122 105.72C188.122 138.2 165.242 162.68 134.682 163C134.522 163 134.362 163 134.362 163H92.1219C86.2019 163 81.4019 158.2 81.4019 152.28V59C81.4019 53.08 86.2019 48.28 92.1219 48.28H133.882C134.202 48.28 134.362 48.28 134.682 48.28ZM166.682 105.72C166.682 84.76 152.922 69.72 133.882 69.72H102.842V141.56H133.882C152.922 141.56 166.682 126.52 166.682 105.72Z" fill="#8365FF"/>
</svg>
