<svg width="843" height="217" viewBox="0 0 843 217" fill="none" xmlns="http://www.w3.org/2000/svg">
<path d="M144.8 150.6L149.2 155C154.4 160.2 154.4 168.6 149.2 174C146.6 176.6 143.2 177.8 139.8 177.8C136.4 177.8 132.8 176.6 130.2 174L124.8 168.6C113 176 99.2 180 84.8 180C64.6 180 45.6 172 31.2 157.6C16.8 143.4 9 124.2 9 104C9 83.6 16.8 64.6 31.2 50.2C33 48.4 35 46.6 37 45C39.6 42.8 42.2 41 45 39.2C46 38.6 46.8 38.2 47.8 37.6C50 36.4 52.4 35.2 55 34.2C56 33.6 56.8 33.4 57.8 33C59.2 32.4 60.6 32 62 31.4C64.2 30.8 66.6 30.2 68.8 29.6C69.8 29.4 70.6 29.4 71.6 29.2C76 28.4 80.4 28 84.8 28C89.8 28 94.6 28.4 99.4 29.4C105.8 30.6 112 32.6 118 35.6C125.4 39.2 132.4 44 138.6 50.2C153 64.6 160.8 83.6 160.8 104C160.8 121 155.2 137.2 144.8 150.6ZM125.6 131.4C138.6 112.2 136.6 86 119.6 69.2C110 59.6 97.4 54.8 84.8 54.8C72.4 54.8 59.8 59.6 50.2 69.2C40.8 78.4 35.8 90.8 35.8 104C35.8 117 40.8 129.4 50.2 138.6C65 153.6 87 156.8 105 148.8L84.2 127.8C79 122.6 79 114 84.2 108.8C89.4 103.6 98 103.6 103.2 108.8L125.6 131.4ZM295.889 32C303.289 32 309.289 38 309.289 45.4V120.8C309.289 151.8 280.689 177.8 246.889 177.8C213.089 177.8 184.689 151.8 184.689 120.8V45.4C184.689 38 190.689 32 198.089 32C205.489 32 211.489 38 211.489 45.4V120.8C211.489 137 227.889 151 246.889 151C264.889 151 282.489 137.4 282.489 120.8V45.4C282.489 38 288.489 32 295.889 32Z" fill="#C178FF"/>
<path d="M465.973 155.6C469.373 162.2 466.773 170.2 460.173 173.6C453.573 177 445.373 174.2 442.173 167.6L432.773 149.2H356.773L347.373 167.6C345.173 172.4 340.373 175 335.573 175C325.573 175 318.973 164.4 323.573 155.6L382.773 38.8C382.973 38.6 382.973 38.4 383.173 38.2C383.173 38 383.373 38 383.373 37.8C383.973 37 384.573 36.2 385.373 35.4C385.373 35.2 385.573 35.2 385.773 35C385.973 34.8 386.173 34.6 386.373 34.4C386.573 34.4 386.773 34.2 386.973 34C387.173 33.8 387.373 33.8 387.573 33.6C388.373 33 389.373 32.6 390.373 32.2C390.573 32.2 390.573 32.2 390.773 32.2C390.973 32 391.373 32 391.573 31.8C391.973 31.8 392.173 31.8 392.373 31.8C392.573 31.6 392.773 31.6 392.973 31.6C393.573 31.6 394.173 31.6 394.573 31.6C394.773 31.4 394.773 31.4 394.773 31.4L394.973 31.6C395.373 31.6 395.973 31.6 396.373 31.6C396.373 31.6 396.573 31.6 396.773 31.6C397.173 31.8 397.573 31.8 398.173 32H398.373C398.773 32.2 399.373 32.2 399.773 32.4C399.973 32.6 400.173 32.6 400.173 32.6C400.373 32.8 400.573 32.8 400.773 33C400.973 33 401.173 33 401.173 33.2C401.373 33.2 401.573 33.4 401.573 33.4C401.973 33.6 402.373 33.8 402.773 34.2C404.573 35.6 405.973 37.2 406.973 39.2C406.773 39.2 406.773 39 406.773 39L465.973 155.6ZM370.573 122.4H418.973L394.773 74.6L370.573 122.4ZM570.07 148.2C577.47 148.2 583.47 154.2 583.47 161.6C583.47 169 577.47 175 570.07 175H501.07C498.27 175 495.67 174.2 493.47 172.8C490.27 170.6 488.07 167.2 487.67 163C487.67 162.6 487.67 162.2 487.67 161.6V45C487.67 37.6 493.67 31.6 501.07 31.6C508.47 31.6 514.47 37.6 514.47 45V148.2H570.07Z" fill="#76A4FF"/>
<rect x="626" width="217" height="217" rx="40" fill="#2D1229"/>
<path d="M671.559 48.28C677.479 48.28 682.279 53.08 682.279 59V152.28C682.279 158.2 677.479 163 671.559 163C665.639 163 660.839 158.2 660.839 152.28V59C660.839 53.08 665.639 48.28 671.559 48.28ZM760.682 48.28C791.242 48.6 814.122 73.24 814.122 105.72C814.122 138.2 791.242 162.68 760.682 163C760.522 163 760.362 163 760.362 163H718.122C712.202 163 707.402 158.2 707.402 152.28V59C707.402 53.08 712.202 48.28 718.122 48.28H759.882C760.202 48.28 760.362 48.28 760.682 48.28ZM792.682 105.72C792.682 84.76 778.922 69.72 759.882 69.72H728.842V141.56H759.882C778.922 141.56 792.682 126.52 792.682 105.72Z" fill="#8365FF"/>
</svg>
