<svg width="768" height="683" viewBox="0 0 768 683" fill="none" xmlns="http://www.w3.org/2000/svg">
<path d="M304.199 264.6C311.599 264.6 317.599 270.6 317.599 278V394.6C317.599 402 311.599 408 304.199 408C296.799 408 290.799 402 290.799 394.6V278C290.799 270.6 296.799 264.6 304.199 264.6ZM415.602 264.6C453.802 265 482.402 295.8 482.402 336.4C482.402 377 453.802 407.6 415.602 408C415.402 408 415.202 408 415.202 408H362.402C355.002 408 349.002 402 349.002 394.6V278C349.002 270.6 355.002 264.6 362.402 264.6H414.602C415.002 264.6 415.202 264.6 415.602 264.6ZM455.602 336.4C455.602 310.2 438.402 291.4 414.602 291.4H375.802V381.2H414.602C438.402 381.2 455.602 362.4 455.602 336.4Z" fill="#8365FF"/>
<path d="M176.502 463.558C169.974 470.086 168.695 480.286 173.979 487.857C198.581 523.113 231.719 551.683 270.401 570.826C313.794 592.301 362.385 601.035 410.54 596.015C458.695 590.995 504.441 572.427 542.471 542.464C576.793 515.423 603.562 480.101 620.327 439.919C623.589 432.099 631.073 426.727 639.547 426.727H688.748C701.828 426.727 711.395 439.09 707.171 451.469C688.95 504.873 657.725 553.066 616.148 591.611C568.239 636.024 508.595 665.763 444.293 677.297C379.991 688.832 313.73 681.678 253.372 656.685C200.391 634.748 153.911 599.874 118.096 555.417C110.282 545.716 95.6732 544.387 86.8649 553.195L34.1421 605.918C21.5428 618.517 0 609.594 0 591.776V404.06C0 393.014 8.95431 384.06 20 384.06H207.716C225.534 384.06 234.457 405.603 221.858 418.202L176.502 463.558ZM591.539 219.188C598.068 212.659 599.346 202.458 594.06 194.886C569.447 159.625 536.297 131.053 497.603 111.909C454.197 90.4335 405.593 81.7018 357.427 86.7261C309.26 91.7504 263.505 110.325 225.465 140.296C191.135 167.345 164.358 202.676 147.588 242.868C144.325 250.688 136.842 256.06 128.368 256.06H79.1613C66.0837 256.06 56.5165 243.699 60.7369 231.321C78.9546 177.891 110.184 129.672 151.774 91.1052C199.692 46.6702 259.353 16.9152 323.675 5.37122C387.998 -6.17272 454.282 0.979065 514.662 25.9779C567.664 47.9218 614.162 82.8087 649.989 127.284C657.804 136.985 672.412 138.315 681.221 129.506L733.858 76.8689C746.457 64.2696 768 73.1929 768 91.011V278.727C768 289.772 759.046 298.727 748 298.727H560.284C542.466 298.727 533.543 277.184 546.142 264.585L591.539 219.188Z" fill="#C178FF"/>
</svg>
