<svg width="250" height="250" viewBox="0 0 250 250" fill="none" xmlns="http://www.w3.org/2000/svg">
<path d="M76.3564 199C70.198 209.667 54.802 209.667 48.6436 199L22.2298 153.25C16.0714 142.583 23.7694 129.25 36.0862 129.25L88.9138 129.25C101.231 129.25 108.929 142.583 102.77 153.25L76.3564 199Z" fill="#C178FF"/>
<path d="M201.356 200C195.198 210.667 179.802 210.667 173.644 200L147.23 154.25C141.071 143.583 148.769 130.25 161.086 130.25L213.914 130.25C226.231 130.25 233.929 143.583 227.77 154.25L201.356 200Z" fill="#8365FF"/>
<circle cx="48.5" cy="98.5" r="26.5" fill="#C178FF"/>
<circle cx="200.5" cy="99.5" r="26.5" fill="#8365FF"/>
<path d="M138.856 200C132.698 210.667 117.302 210.667 111.144 200L73.0385 134C66.8801 123.333 74.5781 110 86.8949 110L163.105 110C175.422 110 183.12 123.333 176.962 134L138.856 200Z" fill="#76A4FF"/>
<circle cx="124.5" cy="63.5" r="37.5" fill="#76A4FF"/>
</svg>
